<?xml version="1.0" encoding="utf-8"?>
<!-- Generator: Adobe Illustrator 17.1.0, SVG Export Plug-In . SVG Version: 6.00 Build 0)  -->
<!DOCTYPE svg PUBLIC "-//W3C//DTD SVG 1.1//EN" "http://www.w3.org/Graphics/SVG/1.1/DTD/svg11.dtd">
<svg version="1.1"
	 id="Layer_1" xmlns:svg="http://www.w3.org/2000/svg" xmlns:inkscape="http://www.inkscape.org/namespaces/inkscape" xmlns:dc="http://purl.org/dc/elements/1.1/" xmlns:sodipodi="http://sodipodi.sourceforge.net/DTD/sodipodi-0.dtd" xmlns:rdf="http://www.w3.org/1999/02/22-rdf-syntax-ns#" xmlns:cc="http://creativecommons.org/ns#"
	 xmlns="http://www.w3.org/2000/svg" xmlns:xlink="http://www.w3.org/1999/xlink" x="0px" y="0px" viewBox="0 206 612 380"
	 enable-background="new 0 206 612 380" xml:space="preserve">
<g id="g3311" transform="translate(6.001985,105.78844)">
	<path id="path3313" fill="#FFFFFF" d="M297.1,110.7c-15.7,0.1-31,2.2-43.7,6.2c-15.8,11.5-94.9,68.7-107.5,81.3
		c-14,14,28.6,45.8,69.4,27c36.3-16.7,61.1-44.5,77.1-46.4c3.3-0.6,5.6-0.8,9.8,2.7l172.4,197.6c7.6-4.2,17.2-8,25-7.6V173.3
		c0,0-92.6-17.9-124.3-42.9C358.1,117.1,327,110.4,297.1,110.7z"/>
	<path id="path3315" fill="#FFFFFF" d="M181.9,140.9c-20.7,9.9-37.7,20.8-48.2,29.8c0,0,1.7,2.5-33.6,2.5v186.2
		c0,0,13.5-2.7,36,14.8c22.4,17.7,115.6,96.8,133.6,95.4c10,1.1,32-8,26.4-27.3c25.6,20.1,44,12.9,46.4,11.2c0,0,15.3-8.1,10.4-24.9
		c8,5.6,30.8,20.8,46.4,9.6c8-5.6,8.8-22.5,5.6-27.3c-3.2-4.8,55,25.5,53.5-23.1c0.2-1.6-0.1-2.9,0-4.3l-159-183.4
		c-4.7-5.1-13.1,0-20.2,4.8c-11.5,7.3-21.6,16.6-33.1,23.8c-27,19.6-65.6,27.1-95.6,10c-16.7-7.2-33.7-34.2-22.2-45.8
		c17.7-19.5,38.7-35.3,60.1-50.6C186.4,142,184.3,141.5,181.9,140.9L181.9,140.9z"/>
	<path id="path3317" fill="#FFFFFF" d="M527.2,129.7h61.6c5.5,0,10,4.5,10,10v293.9c0,5.5-4.5,10-10,10h-61.6c-5.5,0-10-4.5-10-10
		V139.7C517.2,134.1,521.7,129.7,527.2,129.7L527.2,129.7z"/>
	<path id="path3319" fill="#FFFFFF" d="M11.2,129.7h61.6c5.6,0,10,4.5,10,10v293.9c0,5.5-4.4,10-10,10H11.2c-5.5,0-10-4.5-10-10
		V139.7C1.2,134.1,5.7,129.7,11.2,129.7z"/>
</g>
</svg>
